<svg xmlns="http://www.w3.org/2000/svg" viewBox="0 0 190.48 191.52"><defs><style>.cls-1{fill:#a786bd;}</style></defs><title>Contraverse Void</title><g id="Layer_2" data-name="Layer 2"><g id="Layer_2-2" data-name="Layer 2"><polygon class="cls-1" points="190.48 108.81 189.98 116.48 184.15 95.31 181.15 87.81 172.82 73.64 162.65 60.48 177.48 69.98 186.82 84.98 190.48 108.81"/><polygon class="cls-1" points="183.98 56.71 187.75 63.41 171.31 48.85 164.7 44.2 149.99 36.88 134.29 31.4 151.9 31.27 167.91 38.74 183.98 56.71"/><polygon class="cls-1" points="152.13 18.64 158.68 22.67 137.24 17.91 129.21 17.05 112.79 17.78 96.4 20.61 111.74 11.95 129.36 10.72 152.13 18.64"/><polygon class="cls-1" points="106.7 0 114.39 0.12 93.53 6.99 86.19 10.35 72.44 19.37 59.8 30.18 68.56 14.9 83.08 4.83 106.7 0"/><polygon class="cls-1" points="57.06 7.25 63.77 3.51 49.15 19.89 44.48 26.48 37.09 41.16 31.56 56.85 31.49 39.24 39.03 23.25 57.06 7.25"/><polygon class="cls-1" points="19.29 37.63 23.59 31.27 17.94 52.48 16.75 60.47 16.79 76.91 18.93 93.4 10.92 77.72 10.43 60.05 19.29 37.63"/><polygon class="cls-1" points="0 85.81 0.19 78.13 6.88 99.04 10.18 106.41 19.09 120.23 29.79 132.96 14.58 124.08 4.63 109.47 0 85.81"/><polygon class="cls-1" points="5.85 133.56 2.28 126.75 18.28 141.79 24.75 146.63 39.24 154.39 54.77 160.33 37.17 159.94 21.38 152 5.85 133.56"/><polygon class="cls-1" points="37.71 173.26 31.22 169.15 52.6 174.16 60.62 175.11 77.05 174.57 93.47 171.93 78.03 180.41 60.39 181.44 37.71 173.26"/><polygon class="cls-1" points="80.55 191.52 72.9 190.79 94.23 185.59 101.82 182.81 116.23 174.91 129.69 165.13 119.75 179.67 104.48 188.56 80.55 191.52"/><polygon class="cls-1" points="172.25 152.82 168.27 159.39 172.87 137.92 173.67 129.88 172.82 113.47 169.87 97.1 178.64 112.37 180 129.99 172.25 152.82"/><polygon class="cls-1" points="153.27 99.06 158.68 129.69 143.53 124.31 136.4 154.19 121.53 146.56 100.15 168.56 92.27 154.06 62.34 159.39 63.77 143.54 35.53 134.81 44.1 123.07 23.59 100.81 37.69 94.12 31.49 64.19 47.63 66.31 56.27 36.19 68.4 44.93 90.53 24.43 97.4 38.43 126.77 32.81 125.65 47.93 155.27 57.43 146.27 70.06 166.15 91.19 153.27 99.06"/><polygon class="cls-1" points="130.81 185.38 123.95 188.87 139.18 173.05 144.1 166.64 152.03 152.24 158.16 136.78 157.56 154.38 149.43 170.07 130.81 185.38"/></g></g></svg>