<?xml version="1.0" encoding="utf-8"?>
<!-- Generator: Adobe Illustrator 27.7.0, SVG Export Plug-In . SVG Version: 6.00 Build 0)  -->
<svg version="1.1" id="Layer_1" xmlns="http://www.w3.org/2000/svg" xmlns:xlink="http://www.w3.org/1999/xlink" x="0px" y="0px"
	 viewBox="0 0 1080 1080" style="enable-background:new 0 0 1080 1080;" xml:space="preserve">
<style type="text/css">
	.st0{fill:#121822;}
	.st1{fill:#5EC9DB;}
</style>
<g>
	<circle class="st0" cx="540" cy="540" r="522.19"/>
	<g>
		<path class="st1" d="M540,37.94c67.79,0,133.54,13.27,195.42,39.44c59.78,25.29,113.48,61.49,159.59,107.61
			s82.32,99.81,107.61,159.59c26.17,61.88,39.44,127.63,39.44,195.42s-13.27,133.54-39.44,195.42
			c-25.29,59.78-61.49,113.48-107.61,159.59c-46.12,46.12-99.81,82.32-159.59,107.61c-61.88,26.17-127.63,39.44-195.42,39.44
			s-133.54-13.27-195.42-39.44c-59.78-25.29-113.48-61.49-159.59-107.61c-46.12-46.12-82.32-99.81-107.61-159.59
			C51.21,673.54,37.94,607.79,37.94,540s13.27-133.54,39.44-195.42c25.29-59.78,61.49-113.48,107.61-159.59
			c46.12-46.12,99.81-82.32,159.59-107.61C406.46,51.21,472.21,37.94,540,37.94 M540,9.94C247.26,9.94,9.94,247.26,9.94,540
			S247.26,1070.06,540,1070.06S1070.06,832.74,1070.06,540S832.74,9.94,540,9.94L540,9.94z"/>
	</g>
	<g>
		<g>
			<g>
				<g>
					<g>
						<polygon class="st1" points="505.2,250.59 365.26,250.59 265.03,379.54 265.03,511 316.51,511 316.51,405.04 393.22,306.35 
							505.2,306.35 						"/>
					</g>
					<g>
						<polygon class="st1" points="316.51,514.36 233.36,514.36 233.36,355.59 347.12,209.23 508.56,209.23 508.56,306.35 
							501.84,306.35 501.84,215.96 350.41,215.96 240.08,357.89 240.08,507.64 316.51,507.64 						"/>
					</g>
				</g>
				<g>
					<g>
						<polygon class="st1" points="574.8,250.59 714.74,250.59 814.97,379.54 814.97,511 763.49,511 763.49,405.04 686.78,306.35 
							574.8,306.35 						"/>
					</g>
					<g>
						<polygon class="st1" points="846.64,514.36 763.49,514.36 763.49,507.64 839.92,507.64 839.92,357.89 729.59,215.96 
							578.16,215.96 578.16,306.35 571.44,306.35 571.44,209.23 732.88,209.23 846.64,355.59 						"/>
					</g>
				</g>
				<g>
					<g>
						<rect x="141.12" y="529.51" class="st1" width="200.34" height="32.57"/>
					</g>
					<g>
						<rect x="738.54" y="529.51" class="st1" width="200.34" height="32.57"/>
					</g>
				</g>
				<g>
					<g>
						<rect x="523.72" y="100.95" class="st1" width="32.57" height="233.81"/>
					</g>
					<g>
						<rect x="523.72" y="745.24" class="st1" width="32.57" height="233.81"/>
					</g>
				</g>
				<g>
					<g>
						<g>
							<polygon class="st1" points="505.2,827.39 365.26,827.39 265.03,698.44 265.03,580.59 316.51,580.59 316.51,672.94 
								393.22,771.63 505.2,771.63 							"/>
						</g>
						<g>
							<polygon class="st1" points="508.56,868.75 347.12,868.75 233.36,722.4 233.36,577.23 316.51,577.23 316.51,583.95 
								240.08,583.95 240.08,720.09 350.41,862.03 501.84,862.03 501.84,771.63 508.56,771.63 							"/>
						</g>
					</g>
					<g>
						<g>
							<polygon class="st1" points="574.8,827.39 714.74,827.39 814.97,698.44 814.97,580.59 763.49,580.59 763.49,672.94 
								686.78,771.63 574.8,771.63 							"/>
						</g>
						<g>
							<polygon class="st1" points="732.88,868.75 571.44,868.75 571.44,771.63 578.16,771.63 578.16,862.03 729.59,862.03 
								839.92,720.09 839.92,583.95 763.49,583.95 763.49,577.23 846.64,577.23 846.64,722.4 							"/>
						</g>
					</g>
				</g>
				<g>
					<g>
						<polygon class="st1" points="534.45,456.1 381.36,456.1 364.39,435.47 534.45,435.47 						"/>
					</g>
					<g>
						<polygon class="st1" points="443.1,550.11 427.54,563.69 359.33,476.87 359.33,443.48 						"/>
					</g>
					<g>
						<polygon class="st1" points="533.86,665.62 507.63,665.62 433.78,571.64 449.35,558.05 						"/>
					</g>
					<g>
						<polygon class="st1" points="545.55,456.1 698.64,456.1 715.61,435.47 545.55,435.47 						"/>
					</g>
					<g>
						<polygon class="st1" points="636.9,550.11 652.46,563.69 720.67,476.87 720.67,443.48 						"/>
					</g>
					<g>
						<polygon class="st1" points="646.22,571.64 572.37,665.62 546.14,665.62 630.66,558.05 						"/>
					</g>
				</g>
			</g>
		</g>
	</g>
</g>
</svg>
